<svg xmlns="http://www.w3.org/2000/svg" width="96" height="96" viewBox="0 0 96 96" fill="none">
  <path fill-rule="evenodd" clip-rule="evenodd" d="M74.6759 26.5335L82.0074 38.6681L81.9972 38.6782C82.4136 39.3687 82.637 40.1608 82.637 40.963V51.5845C82.637 54.0216 80.6568 56.0017 78.2198 56.0017H53.0571L54.56 63.7901C55.4434 68.0753 54.3569 72.5128 51.5746 75.9247C48.7821 79.3366 44.6594 81.2964 40.2524 81.2964H37.6122L37.2974 69.7305L26.1885 54.1434C25.8331 53.4935 25.6401 52.7523 25.6401 52.011V21.172C25.6401 17.6078 28.5342 14.7036 32.1085 14.7036H55.5653C63.6177 14.7036 69.8627 18.5725 74.6759 26.5335ZM46.4872 50.5691H77.2043V41.227L70.0252 29.3361C66.2274 23.0506 61.6274 20.1261 55.5551 20.1261H32.0984C31.5196 20.1261 31.0524 20.5932 31.0524 21.172V51.6657L42.6691 67.923L42.8722 75.488C44.6188 74.9702 46.1826 73.9446 47.3605 72.4925C49.1172 70.3499 49.7975 67.5574 49.239 64.8462L46.4872 50.5691ZM14.3584 60.1549L16.2979 57.9513C18.6131 55.3112 19.8418 52.2852 19.8418 49.1881V15.5261H14.3584V49.1881V60.1549Z" fill="#333333"/>
</svg>