<svg xmlns="http://www.w3.org/2000/svg" width="96" height="96" viewBox="0 0 96 96" fill="none">
  <path fill-rule="evenodd" clip-rule="evenodd" d="M53.057 40.0085H78.2095C80.6466 40.0085 82.6267 41.9886 82.6267 44.4256V55.0472C82.6267 55.8595 82.4135 56.6414 81.9971 57.3319L74.6656 69.4665C69.8626 77.4275 63.6075 81.2964 55.555 81.2964H32.0983C28.5341 81.2964 25.6299 78.4024 25.6299 74.828V43.989C25.6299 43.2477 25.8228 42.5065 26.1782 41.8566L26.3407 41.5925L37.2872 26.2695L37.602 14.7036H40.2421C44.6491 14.7036 48.782 16.6634 51.5643 20.0753C54.3466 23.4974 55.4433 27.9348 54.5497 32.2505L53.057 40.0085ZM70.0352 66.6638L77.2144 54.773L77.2246 54.7832V45.4411H46.4972L49.2389 31.1944C49.8076 28.4426 49.1171 25.6501 47.3705 23.5075C46.1825 22.0656 44.6288 21.0298 42.8823 20.5119L42.6792 28.077L31.0625 44.3342V74.828C31.0625 75.4068 31.5296 75.8739 32.1084 75.8739H55.5652C61.6375 75.8739 66.2375 72.9494 70.0352 66.6638ZM14.3584 35.6624L16.2979 37.8659C18.6131 40.506 19.8418 43.5321 19.8418 46.6292V80.2911H14.3584V46.6292V35.6624Z" fill="#333333"/>
</svg>