<svg xmlns="http://www.w3.org/2000/svg" width="96" height="96" viewBox="0 0 96 96" fill="none">
  <path fill-rule="evenodd" clip-rule="evenodd" d="M73.5992 26.2289V69.7813V69.7914H89.4401L87.2671 71.7106C84.6676 73.9954 81.6822 75.2037 78.6358 75.224H12.6726C9.31152 75.224 6.56982 72.3605 6.56982 68.8369V27.2037C6.56982 23.6801 9.30137 20.8166 12.6726 20.8166H83.2967C86.6578 20.8166 89.3995 23.6801 89.3995 27.2037V56.9867C89.3995 60.0432 88.1911 63.0387 85.8962 65.6484L83.977 67.8215V27.1936C83.977 26.6249 83.6216 26.2289 83.2967 26.2289H73.5992ZM12.6726 69.7813H68.1768V69.7711V26.2187H12.6726C12.3477 26.2187 11.9923 26.6148 11.9923 27.1834V68.8166C11.9923 69.3852 12.3477 69.7813 12.6726 69.7813ZM30.3184 58.0905L30.3112 58.0935H30.3213L30.3184 58.0905ZM57.4946 46.7408L30.3184 58.0905L23 50.7417L24.9801 50.3355C27.3461 49.8481 29.184 50.1832 30.2807 51.2799L31.4383 52.4476L38.1504 49.6755L28.0975 39.8561H34.4948L42.6082 47.7766L49.3304 44.974C51.1176 44.2327 53.2704 44.4866 55.5754 45.7152L57.4946 46.7408Z" fill="#333333" />
</svg>