<svg xmlns="http://www.w3.org/2000/svg" width="24" height="24" viewBox="0 0 24 24" fill="none">
  <path fill-rule="evenodd" clip-rule="evenodd" d="M11.4629 16.7604L10.4233 15.7102L14.1731 11.9978L10.0641 7.86466L11.1125 6.82202L16.2659 12.0061L11.4629 16.7604Z" fill="#333333"/>
  <path fill-rule="evenodd" clip-rule="evenodd" d="M9.23091 16.9034C8.71866 17.4149 8.45177 18.1525 8.45971 19.0356L8.46311 19.3796L8.46802 19.7727L8.69523 19.5455L8.74437 19.4968L12.5267 15.722L11.4731 14.6658L9.23091 16.9034Z" fill="#333333"/>
  <path fill-rule="evenodd" clip-rule="evenodd" d="M9.23085 7.05953C8.7186 6.54803 8.45171 5.81047 8.45964 4.92737L8.46305 4.58335L8.46796 4.19019L8.69554 4.41739L8.74431 4.46616L12.5266 8.24091L11.473 9.29716L9.23085 7.05953Z" fill="#333333"/>
</svg>